<svg width="166" height="71" viewBox="0 0 166 71" fill="none" xmlns="http://www.w3.org/2000/svg">
<path d="M2.8522 31.008L36.9802 17.976L37.7002 26.904L12.7882 35.544L33.2362 44.976L28.7002 52.968L0.908203 39.432L2.8522 31.008Z" fill="#828282"/>
<path d="M54.4301 48.648C55.5341 48.648 56.6381 48.576 57.7421 48.432C58.8461 48.24 59.8301 47.928 60.6941 47.496C61.5581 47.064 62.2541 46.464 62.7821 45.696C63.3581 44.88 63.6461 43.848 63.6461 42.6C63.6461 41.64 63.3821 40.824 62.8541 40.152C62.3261 39.432 61.6541 38.784 60.8381 38.208C60.0221 37.632 59.1101 37.104 58.1021 36.624C57.0941 36.144 56.0861 35.616 55.0781 35.04C53.7821 34.272 52.5581 33.456 51.4061 32.592C50.2541 31.728 49.2701 30.768 48.4541 29.712C47.6381 28.608 46.9901 27.408 46.5101 26.112C46.0301 24.768 45.7901 23.232 45.7901 21.504C45.7901 19.296 46.1981 17.256 47.0141 15.384C47.8781 13.464 49.1261 11.808 50.7581 10.416C52.4381 9.02402 54.5261 7.94402 57.0221 7.17602C59.5181 6.36002 62.4461 5.95202 65.8061 5.95202C67.3421 5.95202 68.8301 6.09602 70.2701 6.38403C71.7101 6.62403 73.0541 6.93603 74.3021 7.32002C75.5501 7.70402 76.6781 8.16002 77.6861 8.68803C78.7421 9.16803 79.6301 9.64803 80.3501 10.128L75.6701 18.408C74.4701 17.496 73.0061 16.728 71.2781 16.104C69.5501 15.48 67.6781 15.168 65.6621 15.168C64.5581 15.168 63.5021 15.264 62.4941 15.456C61.4861 15.648 60.5981 15.984 59.8301 16.464C59.0621 16.896 58.4381 17.472 57.9581 18.192C57.5261 18.912 57.3101 19.8 57.3101 20.856C57.3101 21.816 57.4781 22.632 57.8141 23.304C58.1981 23.928 58.6781 24.48 59.2541 24.96C59.8301 25.44 60.5021 25.872 61.2701 26.256C62.0381 26.64 62.8541 27.048 63.7181 27.48C65.2061 28.248 66.6461 29.064 68.0381 29.928C69.4301 30.792 70.6541 31.8 71.7101 32.952C72.7661 34.056 73.6061 35.328 74.2301 36.768C74.8541 38.208 75.1661 39.912 75.1661 41.88C75.1661 44.616 74.6621 46.992 73.6541 49.008C72.6461 51.024 71.2301 52.704 69.4061 54.048C67.5821 55.392 65.3981 56.376 62.8541 57C60.3581 57.672 57.5741 58.008 54.5021 58.008C52.4861 58.008 50.5901 57.84 48.8141 57.504C47.0861 57.168 45.5021 56.784 44.0621 56.352C42.6701 55.872 41.4461 55.368 40.3901 54.84C39.3821 54.312 38.5661 53.832 37.9421 53.4L42.6941 44.832C43.2701 45.216 43.9661 45.624 44.7821 46.056C45.5981 46.488 46.5101 46.896 47.5181 47.28C48.5741 47.664 49.6781 48 50.8301 48.288C51.9821 48.528 53.1821 48.648 54.4301 48.648Z" fill="#5FD4F4"/>
<path d="M97.0417 70.32H86.0977L126.418 0.624023H137.29L97.0417 70.32Z" fill="#BDBDBD"/>
<path d="M163.681 39.936L129.553 52.968L128.833 43.968L153.745 35.328L133.297 25.896L137.833 17.976L165.625 31.512L163.681 39.936Z" fill="#828282"/>
</svg>
